<svg xmlns="http://www.w3.org/2000/svg" width="48" height="40" fill="none"><path fill="#fff" d="M12.987 32.263c-1.648 0-3.09-.28-4.33-.84-1.238-.562-2.138-1.344-2.699-2.349v10.093H.911V12.252h4.837l.21 2.891c1.075-2.126 3.418-3.189 7.03-3.189 1.296 0 2.511.257 3.645.771a8.898 8.898 0 0 1 2.962 2.085c.841.877 1.502 1.951 1.98 3.225.491 1.261.737 2.622.737 4.082s-.246 2.828-.736 4.101c-.48 1.262-1.14 2.33-1.981 3.207a9.244 9.244 0 0 1-2.962 2.085 8.895 8.895 0 0 1-3.646.753ZM11.62 16.247c-1.578 0-2.916.555-4.014 1.665-1.098 1.098-1.648 2.5-1.648 4.206 0 1.705.544 3.113 1.63 4.223 1.099 1.098 2.443 1.647 4.032 1.647 1.577 0 2.904-.55 3.979-1.647 1.086-1.11 1.63-2.518 1.63-4.224 0-1.693-.544-3.095-1.63-4.205-1.087-1.11-2.413-1.665-3.98-1.665Z"/><path fill="#fff" d="M24.219 10.932c2.124 0 4.006.485 5.664 1.472 1.658.987 2.85 2.31 3.577 3.949V3.537h2.162V32.15h-2.087l-.075-5.197c-.708 1.714-1.882 3.036-3.521 3.986-1.658.95-3.559 1.434-5.72 1.434-1.9 0-3.652-.465-5.236-1.415a9.952 9.952 0 0 1-3.782-3.875c-.932-1.639-1.398-3.446-1.398-5.42 0-1.975.466-3.782 1.398-5.44a10.207 10.207 0 0 1 3.782-3.874c1.584-.95 3.335-1.416 5.236-1.416Zm.484 19.54c2.422 0 4.49-.857 6.205-2.57 1.695-1.714 2.552-3.8 2.552-6.24 0-2.478-.857-4.564-2.571-6.278-1.714-1.695-3.782-2.552-6.186-2.552-4.695-.111-8.813 4.005-8.72 8.83-.093 4.824 4.025 8.922 8.72 8.81ZM41.471.751a3.773 3.773 0 0 1 1.927-.512c.695 0 1.337.17 1.932.512.59.347 1.055.813 1.403 1.402.341.595.512 1.237.512 1.932a3.897 3.897 0 0 1-1.12 2.721 3.91 3.91 0 0 1-2.727 1.13c-.695 0-1.338-.17-1.927-.517a3.753 3.753 0 0 1-1.396-1.402 3.726 3.726 0 0 1-.518-1.932c0-.695.17-1.337.518-1.932A3.84 3.84 0 0 1 41.471.75Zm1.927 6.68c.913 0 1.767-.384 2.363-.978.595-.595.977-1.461.977-2.368a3.38 3.38 0 0 0-.977-2.362 3.371 3.371 0 0 0-2.363-.978c-.902 0-1.768.383-2.357.978a3.38 3.38 0 0 0-.978 2.362c0 .907.383 1.773.978 2.368.59.594 1.456.977 2.357.977Zm1.732-3.959c0 .642-.342 1.155-.948 1.36l.86 1.385h-.843l-.783-1.278h-.866v1.278h-.825V1.994h1.797c.495 0 .89.135 1.178.412.289.277.43.63.43 1.066Zm-2.58.795h.895a.835.835 0 0 0 .613-.241.754.754 0 0 0 .236-.554.77.77 0 0 0-.236-.565.826.826 0 0 0-.613-.242h-.895v1.602Z"/></svg>