<svg xmlns="http://www.w3.org/2000/svg" fill="#fff" version="1.0" viewBox="0 0 146 133"><path d="M67.1 9.7c-8.2 8.4-52.7 58.7-53.9 61-1.1 2-1.1 3.8-.3 9.2 3.4 19.7 19.8 36.8 42.5 44.2 9.2 3 25 3.3 34 .5 25.1-7.6 42.7-26.5 44.2-47.6l.5-6.5L109.5 43C80.9 11 76 6 73 6c-1.3 0-3.9 1.7-5.9 3.7zm30.4 40.2c22.5 25.2 22.7 25.5 22.2 29.3-1.8 13.2-17.5 28.2-34.6 32.8-6.7 1.8-18.7 1.4-26.2-.9-16.1-5-31.4-20.4-32.2-32.4-.2-3.2 1.6-5.4 23.2-29.6C62.7 34.6 73.6 23.2 74 23.7c.4.4 11 12.2 23.5 26.2z"/><path d="M47.2 74.2c-.7.7-1.2 3.3-1.2 6 0 5.4 1.5 6.8 7.4 6.8 4.4 0 6.6-2.2 6.6-6.6 0-5.9-1.4-7.4-6.8-7.4-2.7 0-5.3.5-6 1.2zm41 0c-1.6 1.6-1.6 10 0 11.6 1.6 1.6 9 1.6 10.6 0 .7-.7 1.2-3.3 1.2-5.8 0-5.7-1.2-7-6.5-7-2.3 0-4.6.5-5.3 1.2zM67.1 88.9c-1.4 2.5-1.4 6.7-.1 9.2.8 1.5 2.1 1.9 5.9 1.9 6.1 0 7.3-1.4 6.9-7.7l-.3-4.8-5.7-.3c-4.8-.3-5.8 0-6.7 1.7z"/></svg>